<?xml version="1.0" encoding="utf-8"?>
<!-- Generator: Adobe Illustrator 17.0.0, SVG Export Plug-In . SVG Version: 6.00 Build 0)  -->
<!DOCTYPE svg PUBLIC "-//W3C//DTD SVG 1.1//EN" "http://www.w3.org/Graphics/SVG/1.1/DTD/svg11.dtd">
<svg version="1.1" id="Layer_1" xmlns="http://www.w3.org/2000/svg" xmlns:xlink="http://www.w3.org/1999/xlink" x="0px" y="0px"
	 width="66px" height="53.397px" viewBox="0 0 66 53.397" enable-background="new 0 0 66 53.397" xml:space="preserve">
<path display="none" fill="#FFFFFF" stroke="#000000" stroke-width="0.75" stroke-miterlimit="10" d="M-1546.851,9.241
	c8.092-2.569,16.183-5.138,24.275-7.707c-0.032-0.146-0.064-0.292-0.096-0.437c-0.959,0.225-1.92,0.442-2.878,0.675
	c-14.136,3.431-28.335,6.627-42.382,10.388c-8.151,2.182-16.029,5.366-24.083,7.934c-14.547,4.639-29.117,9.296-44.566,9.743
	c-2.914,0.084-5.967-0.271-8.755-1.098c-5.421-1.609-7.163-6.551-4.075-11.307c1.519-2.339,3.424-4.503,5.472-6.404
	c4.071-3.78,8.249-7.465,12.601-10.913c2.841-2.251,4.021-1.802,6.207,1.072c0.361,0.474,1.319,0.716,1.991,0.698
	c9.935-0.275,19.457-2.722,28.849-5.719c18.912-6.035,36.822-14.528,54.911-22.576c4.818-2.144,9.573-4.432,14.423-6.501
	c0.824-0.352,2.35-0.319,2.91,0.212c1.464,1.39,3.055,2.975,3.735,4.802c2.154,5.787,3.179,11.841,3.432,18.04
	c0.183,4.491-1.759,8.431-2.922,12.567c-0.19,0.675-1.333,1.343-2.151,1.542c-8.157,1.986-16.334,3.889-24.52,5.757
	c-0.728,0.166-1.55-0.085-2.329-0.143C-1546.818,9.657-1546.834,9.449-1546.851,9.241z M-1622.548,5.097
	c-0.027,0.092-0.054,0.185-0.081,0.277c2.521,0.395,5.058,1.201,7.56,1.102c5.61-0.221,11.225-0.709,16.796-1.419
	c10.261-1.308,20.011-4.647,29.511-8.529c12.605-5.152,24.292-12.052,35.255-20.146c2.639-1.948,5.234-3.955,7.849-5.936
	c-2.315,0.83-4.34,2.051-6.348,3.299c-15.613,9.707-31.708,18.435-49.237,24.245c-9.49,3.146-19.123,5.743-29.106,6.688
	C-1614.392,5.062-1618.48,4.972-1622.548,5.097z"/>
<path display="none" fill="#FFFFFF" stroke="#000000" stroke-width="0.75" stroke-miterlimit="10" d="M-1310.683,30.606
	c2.775,1.451,5.801,2.154,8.843,2.358c5.956,0.398,11.947,0.8,17.9,0.575c7.227-0.273,14.473-0.895,21.631-1.919
	c6.624-0.948,11.277-5.121,14.819-10.693c2.288-3.599,3.336-7.614,4.538-11.608c1.634-5.426,3.595-10.722,7.596-14.925
	c1.813-1.905,3.973-3.237,6.828-2.451c1.777,0.489,3.087,2.081,3.479,3.866c1.081,4.913,1.563,9.873,1.776,14.863
	c0.258,6.023,0.324,12.054,0.476,18.082c0.006,0.226,0.046,0.451,0.079,0.761c1.424-0.077,2.804-0.152,3.923-0.213
	c-0.544-8.116-1.119-16.209-1.617-24.307c-0.276-4.487-0.135-8.98,0.993-13.35c0.97-3.759,2.858-7.145,4.961-10.381
	c1.94-2.984,4.061-5.849,6.019-8.822c1.402-2.128,1.457-4.598,1.287-7.017c-0.119-1.694-1.266-2.076-2.887-1.097
	c-2.538,1.533-5.056,3.096-7.578,4.656c-2.638,1.632-5.271,3.269-7.901,4.914c-0.672,0.42-1.144,0.333-1.652-0.331
	c-1.965-2.568-3.519-5.344-4.536-8.419c-0.553-1.672-0.316-3.284,0.613-4.698c2.489-3.785,5.065-7.513,7.625-11.251
	c0.514-0.751,1.125-1.437,1.664-2.172c0.864-1.177,0.514-2.25-0.478-3.087c-3.297-2.781-6.668-5.474-9.95-8.271
	c-1.376-1.172-2.329-0.389-3.217,0.526c-3.146,3.24-6.25,6.521-9.353,9.802c-3.607,3.814-7.038,7.812-10.838,11.422
	c-4.359,4.141-9.574,7.051-15.249,9.068c-2.138,0.76-4.326,1.381-6.497,2.049c-1.893,0.582-2.342,1.18-2.172,3.153
	c0.25,2.886,0.585,5.764,0.794,8.653c0.084,1.156-0.099,2.329-0.114,3.495c-0.026,1.988,0.699,2.784,2.699,2.634
	c1.949-0.146,3.909-0.409,5.813-0.846c5.494-1.262,10.946-2.71,16.449-3.928c1.988-0.44,4.074-0.448,6.118-0.625
	c1.724-0.149,2.901,0.655,3.765,2.119c0.798,1.352,1.763,2.606,2.551,3.963c0.203,0.351,0.203,1.061-0.022,1.383
	c-3.357,4.796-6.072,9.93-8.147,15.396c-1.38,3.634-2.578,7.339-4.002,10.955c-1.449,3.68-3.713,6.839-6.704,9.449
	c-1.151,1.004-2.365,0.922-3.78-0.537c-3.317-3.42-6.54-6.932-9.798-10.409c-1.55-1.654-3.05-3.36-4.661-4.952
	c-1.008-0.996-2.183-0.561-3.207,0.071c-3.851,2.377-7.672,4.801-11.516,7.189c-1.039,0.646-1.428,1.496-1.168,2.708
	c0.447,2.088,0.835,4.189,1.306,6.579c-1.547,0.084-2.851,0.089-4.14,0.237c-4.219,0.482-8.444,0.944-12.637,1.599
	c-0.713,0.111-1.499,1.033-1.864,1.772C-1312.285,29.542-1311.542,30.157-1310.683,30.606z M-1241.859-36.538
	c0.133,2.454-1.748,4.551-4.202,4.684c-2.454,0.133-4.551-1.748-4.684-4.202c-0.133-2.454,1.748-4.551,4.202-4.684
	C-1244.089-40.874-1241.992-38.992-1241.859-36.538z"/>
<path display="none" fill-rule="evenodd" clip-rule="evenodd" fill="#FFFFFF" stroke="#000000" stroke-width="0.75" stroke-miterlimit="10" d="
	M-1140.816,27.89v0.334c0,0.535,0.935,1.069,2.739,1.47c1.804,0.4,4.142,0.735,6.881,1.069c2.739,0.334,5.745,0.534,8.951,0.801
	c3.207,0.201,6.213,0.334,9.019,0.468c2.739,0.134,5.144,0.267,7.081,0.267c1.937,0.067,2.939,0.067,3.073,0.067
	c0.468,0,1.269-0.067,2.338-0.134c1.069-0.067,2.271-0.134,3.741-0.334c1.403-0.201,2.872-0.401,4.342-0.802
	c1.537-0.334,3.006-0.735,4.476-1.336c0.869-0.2,1.871-0.801,3.006-1.737c0.936-0.801,2.071-2.138,3.274-3.808
	c1.269-1.737,6.026-11.41,6.68-12.225c0.668-1.136,1.537-2.338,2.539-3.674c1.069-1.336,2.204-2.605,3.541-3.808
	c0.534,1.202,1.069,2.471,1.536,3.808c0.401,1.202,0.868,2.538,1.269,4.142c0.401,1.536,0.668,3.073,0.801,4.676l-0.267,14.337
	l1.603,0.535l1.67-0.535V16.801c0-1.002,0.067-2.405,0.134-4.142c0.134-1.67,0.401-3.607,0.735-5.611
	c0.401-2.004,0.935-4.075,1.737-6.213c0.735-2.071,1.736-4.075,3.006-5.812c0.134-0.334,0.334-0.735,0.601-1.202
	c0.267-0.535,0.401-1.737,0.401-3.608c0-0.935-0.134-2.271-0.334-3.874c-0.267-1.603-0.802-3.541-1.603-5.745
	c-0.735-1.937-1.269-3.54-1.804-4.743c-0.468-1.269-0.801-2.204-1.069-2.939c-0.2-0.668-0.401-1.136-0.534-1.47
	c-0.067-0.334-0.134-0.601-0.134-0.802c-0.067,0-0.134-0.4-0.334-1.269c-0.134-0.868-0.2-1.537-0.2-1.938
	c0-0.133,0.067-0.868,0.2-2.271c0.067-1.336,0.267-3.14,0.468-5.211c0.2-2.137,0.401-4.475,0.668-7.014
	c0.2-2.605,0.468-5.211,0.735-7.816c0.2-2.672,0.468-5.144,0.735-7.548c0.267-2.338,0.535-4.409,0.735-6.079v-0.2
	c0-0.201-0.134-0.401-0.334-0.668c-0.267-0.334-0.936-0.468-2.071-0.468c-1.403,0-3.073,0.468-4.876,1.403
	c-1.871,0.935-3.608,1.937-5.344,3.073c-1.737,1.135-3.34,2.137-4.81,3.073c-1.47,0.935-2.605,1.403-3.474,1.403
	c-0.668,0-1.403-0.134-2.137-0.468c-0.668-0.267-1.269-0.535-1.804-0.935c-0.2-0.134-0.668-0.401-1.403-0.802
	c-0.668-0.401-1.537-0.801-2.472-1.269c-0.935-0.4-1.804-0.735-2.739-1.069c-0.868-0.267-1.603-0.468-2.137-0.468
	c-1.069,0-1.87,0.334-2.539,1.002c-0.668,0.668-1.069,1.269-1.336,1.937l-1.336,0.067l-0.401-0.802
	c-0.267-0.535-0.535-0.868-0.802-0.935c-0.601,0-0.868,0.334-0.868,1.002c0,0.134,0.067,0.868,0.134,2.071
	c0.067,1.269,0.134,2.605,0.334,4.075l0.401,5.812l-0.134,0.067c-0.134,0.133-0.2,0.267-0.2,0.401v7.682
	c0.134,0,0.267,0,0.334,0.067c0.067,0,0.134,0.267,0.134,0.802c0.067,0.534,0.067,1.336,0.067,2.405c0,1.069,0,2.605,0,4.676
	c-0.4,0-0.601,0.134-0.601,0.468c0,0.601,0,1.336,0,2.204s0,1.67,0,2.539c0.067,0.801,0.134,1.536,0.201,2.204
	c0.067,0.668,0.2,1.002,0.4,1.069c0,1.937,0,3.607-0.067,5.077c0,1.403-0.066,2.271-0.066,2.605v0.334
	c-0.468,0-0.802,0.267-1.002,0.801c-0.201,0.535-0.334,1.202-0.401,2.004c-0.067,0.801-0.134,1.67-0.201,2.538
	c-0.133,0.936-0.267,1.737-0.534,2.405c0.067,0,0.134,0.067,0.2,0.133c0.067,0.067,0.201,0.134,0.535,0.267
	c-0.334,1.136-0.601,2.271-0.936,3.474c-0.334,1.202-0.801,2.472-1.336,3.674c-0.2-0.067-0.334-0.067-0.534-0.067
	c-0.535,1.135-1.069,2.204-1.537,3.206c-0.468,0.802-0.869,1.603-1.269,2.405c-0.401,0.801-0.735,1.269-0.936,1.403l0.134,0.134
	l0.267,0.267c-0.868,1.47-1.87,2.806-2.873,4.008c-1.069,1.202-2.271,2.405-3.808,3.54c-1.47,1.202-3.34,2.338-5.545,3.541
	c-2.271,1.202-5.01,2.405-8.35,3.741c-1.67,0.601-3.273,1.269-4.876,1.938c-1.67,0.735-3.14,1.403-4.475,2.137
	c-1.336,0.735-2.472,1.47-3.407,2.338c-0.935,0.802-1.536,1.67-1.736,2.605L-1140.816,27.89z"/>
<g display="none">
	<path display="inline" fill="#FFFFFF" stroke="#000000" stroke-width="0.75" stroke-miterlimit="10" d="M-941.337,12.918
		c5.686,0,10.988,0,16.716,0c0.131-2.203,0.256-4.297,0.391-6.563c0.708-0.143,1.301-0.338,1.904-0.372
		c14.053-0.797,18.926-5.479,20.289-19.434c0.252-2.577,0.686-5.136,1.179-8.755c2.424,10.96,4.216,20.911,6.88,30.622
		c3.021,11.013-5.747,21.314-15.368,22.658c-1.003,0.14-2.03,0.149-3.046,0.15c-13.746,0.008-27.492,0.043-41.238-0.009
		c-10.05-0.038-17.891-6.783-19.053-16.713c-0.296-2.533,0.573-5.242,1.113-7.828c1.936-9.273,3.96-18.527,6.389-27.863
		c0.539,3.668,1.082,7.335,1.618,11.004c1.579,10.797,7.29,15.885,18.114,16.123c1.132,0.025,2.265,0.003,3.538,0.003
		C-941.716,8.31-941.544,10.405-941.337,12.918z"/>
	<path display="inline" fill="#FFFFFF" stroke="#000000" stroke-width="0.75" stroke-miterlimit="10" d="M-902.863-26.868
		c-0.975,6.89-1.493,13.488-2.923,19.881c-1.673,7.477-7.591,10.663-17.124,9.941c-0.258-1.08-0.535-2.239-0.868-3.633
		c-6.094,0-12.143,0-18.427,0c-0.27,1.183-0.537,2.353-0.787,3.45c-10.783,1.444-16.711-3.121-17.971-13.513
		c-0.638-5.264-1.511-10.5-2.332-16.126C-943.081-26.868-923.248-26.868-902.863-26.868z"/>
	<path display="inline" fill="#FFFFFF" stroke="#000000" stroke-width="0.75" stroke-miterlimit="10" d="M-960.268-31.043
		c-0.655-0.046-1.729-0.12-2.761-0.192c-1.269-16.363,10.337-28.922,27.104-29.636c18.903-0.805,32.593,11.243,33.053,29.236
		c-2.939,1.755-3.905,0.188-4.367-2.54c-1.453-8.588-5.339-15.556-13.355-19.706c-12.189-6.311-29.132-2.561-34.83,8.198
		C-957.689-41.407-958.553-36.389-960.268-31.043z"/>
	<path display="inline" fill="#FFFFFF" stroke="#000000" stroke-width="0.75" stroke-miterlimit="10" d="M-938.616,9.605
		c0-2.306,0-4.514,0-6.974c3.696,0,7.285,0,11.169,0c0,2.247,0,4.451,0,6.974C-931.054,9.605-934.732,9.605-938.616,9.605z"/>
</g>
<polygon points="16.291,11.995 14.877,13.41 33.318,31.851 33.336,31.833 33.354,31.851 51.795,13.41 50.381,11.995 33.336,29.04 
	"/>
<polygon points="16.291,23.049 14.877,24.463 33.318,42.904 33.336,42.887 33.354,42.904 51.795,24.463 50.381,23.049 
	33.336,40.094 "/>
</svg>
